CddbId:b70fb263:[150, 1014, 2477, 5709, 8363, 10934, 14549, 16973, 19920, 22936, 25869, 29352, 31978, 34841, 37871, 40449, 43388, 47185, 50605, 53196, 56505, 59375, 62628, 65833, 69295, 72569, 75996, 79131, 83115, 86403, 90060, 93794, 96044, 100043, 103052, 105971, 109168, 112547, 116190, 119088, 122752, 125782, 129077, 132288, 135402, 138209, 141525, 144939, 147746, 150992, 154621, 158042, 161622, 164583, 168107, 170977, 173820, 176522, 179399, 181851, 184477, 186672, 189075, 191541, 195623, 198660, 202213, 204832, 207674, 210767, 214187, 217134, 220443, 222992, 226852, 230056, 232682, 235420, 238213, 241271, 244991, 247199, 250494, 252876, 256297, 259320, 262775, 266035, 268606, 271434, 274854, 278093, 281604, 284788, 287233, 290124, 294192, 298330, 300162]:301500:74:b70fb263 99 150 1014 2477 5709 8363 10934 14549 16973 19920 22936 25869 29352 31978 34841 37871 40449 43388 47185 50605 53196 56505 59375 62628 65833 69295 72569 75996 79131 83115 86403 90060 93794 96044 100043 103052 105971 109168 112547 116190 119088 122752 125782 129077 132288 135402 138209 141525 144939 147746 150992 154621 158042 161622 164583 168107 170977 173820 176522 179399 181851 184477 186672 189075 191541 195623 198660 202213 204832 207674 210767 214187 217134 220443 222992 226852 230056 232682 235420 238213 241271 244991 247199 250494 252876 256297 259320 262775 266035 268606 271434 274854 278093 281604 284788 287233 290124 294192 298330 300162 4020: 99 0 0 0 0 0 0 0 0 0 0 0 0 0 0 0 0 0 0 0 0 0 0 0 0 0 0 0 0 0 0 0 0 0 0 0 0 0 0 0 0 0 0 0 0 0 0 0 0 0 0 0 0 0 0 0 0 0 0 0 0 0 0 0 0 0 0 0 0 0 0 0 0 0 0 0 0 0 0 0 0 0 0 0 0 0 0 0 0 0 0 0 0 0 0 0 0 0 0 0 4020
num_tracks: 99
offsets: [150, 1014, 2477, 5709, 8363, 10934, 14549, 16973, 19920, 22936, 25869, 29352, 31978, 34841, 37871, 40449, 43388, 47185, 50605, 53196, 56505, 59375, 62628, 65833, 69295, 72569, 75996, 79131, 83115, 86403, 90060, 93794, 96044, 100043, 103052, 105971, 109168, 112547, 116190, 119088, 122752, 125782, 129077, 132288, 135402, 138209, 141525, 144939, 147746, 150992, 154621, 158042, 161622, 164583, 168107, 170977, 173820, 176522, 179399, 181851, 184477, 186672, 189075, 191541, 195623, 198660, 202213, 204832, 207674, 210767, 214187, 217134, 220443, 222992, 226852, 230056, 232682, 235420, 238213, 241271, 244991, 247199, 250494, 252876, 256297, 259320, 262775, 266035, 268606, 271434, 274854, 278093, 281604, 284788, 287233, 290124, 294192, 298330, 300162]
extents: [0, 0, 0, 0, 0, 0, 0, 0, 0, 0, 0, 0, 0, 0, 0, 0, 0, 0, 0, 0, 0, 0, 0, 0, 0, 0, 0, 0, 0, 0, 0, 0, 0, 0, 0, 0, 0, 0, 0, 0, 0, 0, 0, 0, 0, 0, 0, 0, 0, 0, 0, 0, 0, 0, 0, 0, 0, 0, 0, 0, 0, 0, 0, 0, 0, 0, 0, 0, 0, 0, 0, 0, 0, 0, 0, 0, 0, 0, 0, 0, 0, 0, 0, 0, 0, 0, 0, 0, 0, 0, 0, 0, 0, 0, 0, 0, 0, 0, 0]
total_length: 4020
cddb: [3071259235, 99, 150, 1014, 2477, 5709, 8363, 10934, 14549, 16973, 19920, 22936, 25869, 29352, 31978, 34841, 37871, 40449, 43388, 47185, 50605, 53196, 56505, 59375, 62628, 65833, 69295, 72569, 75996, 79131, 83115, 86403, 90060, 93794, 96044, 100043, 103052, 105971, 109168, 112547, 116190, 119088, 122752, 125782, 129077, 132288, 135402, 138209, 141525, 144939, 147746, 150992, 154621, 158042, 161622, 164583, 168107, 170977, 173820, 176522, 179399, 181851, 184477, 186672, 189075, 191541, 195623, 198660, 202213, 204832, 207674, 210767, 214187, 217134, 220443, 222992, 226852, 230056, 232682, 235420, 238213, 241271, 244991, 247199, 250494, 252876, 256297, 259320, 262775, 266035, 268606, 271434, 274854, 278093, 281604, 284788, 287233, 290124, 294192, 298330, 300162, 4020]
musicbrainz: ('99 150 1014 2477 5709 8363 10934 14549 16973 19920 22936 25869 29352 31978 34841 37871 40449 43388 47185 50605 53196 56505 59375 62628 65833 69295 72569 75996 79131 83115 86403 90060 93794 96044 100043 103052 105971 109168 112547 116190 119088 122752 125782 129077 132288 135402 138209 141525 144939 147746 150992 154621 158042 161622 164583 168107 170977 173820 176522 179399 181851 184477 186672 189075 191541 195623 198660 202213 204832 207674 210767 214187 217134 220443 222992 226852 230056 232682 235420 238213 241271 244991 247199 250494 252876 256297 259320 262775 266035 268606 271434 274854 278093 281604 284788 287233 290124 294192 298330 300162 301500', '.3brSZa6QVxfCyV5mqDl33hMMiI-')

CD record:
Device type    : Removable CD-ROM
Version        : 0
Response Format: 2
Capabilities   : 
Vendor_info    : 'FREECOM_'
Identification : 'DVD+/-RW16H4    '
Revision       : 'FR00'
Device seems to be: Generic mmc2 DVD-R/DVD-RW.
Using generic SCSI-3/mmc   CD-R/CD-RW driver (mmc_cdr).
Driver flags   : MMC-3 SWABAUDIO BURNFREE 
Supported modes: TAO PACKET SAO SAO/R96R RAW/R96R
first: 1 last 99
track:   1 lba:         0 (        0) 00:02:00 adr: 1 control: 0 mode: -1
track:   2 lba:       864 (     3456) 00:13:39 adr: 1 control: 0 mode: -1
track:   3 lba:      2327 (     9308) 00:33:02 adr: 1 control: 0 mode: -1
track:   4 lba:      5559 (    22236) 01:16:09 adr: 1 control: 0 mode: -1
track:   5 lba:      8213 (    32852) 01:51:38 adr: 1 control: 0 mode: -1
track:   6 lba:     10784 (    43136) 02:25:59 adr: 1 control: 0 mode: -1
track:   7 lba:     14399 (    57596) 03:13:74 adr: 1 control: 0 mode: -1
track:   8 lba:     16823 (    67292) 03:46:23 adr: 1 control: 0 mode: -1
track:   9 lba:     19770 (    79080) 04:25:45 adr: 1 control: 0 mode: -1
track:  10 lba:     22786 (    91144) 05:05:61 adr: 1 control: 0 mode: -1
track:  11 lba:     25719 (   102876) 05:44:69 adr: 1 control: 0 mode: -1
track:  12 lba:     29202 (   116808) 06:31:27 adr: 1 control: 0 mode: -1
track:  13 lba:     31828 (   127312) 07:06:28 adr: 1 control: 0 mode: -1
track:  14 lba:     34691 (   138764) 07:44:41 adr: 1 control: 0 mode: -1
track:  15 lba:     37721 (   150884) 08:24:71 adr: 1 control: 0 mode: -1
track:  16 lba:     40299 (   161196) 08:59:24 adr: 1 control: 0 mode: -1
track:  17 lba:     43238 (   172952) 09:38:38 adr: 1 control: 0 mode: -1
track:  18 lba:     47035 (   188140) 10:29:10 adr: 1 control: 0 mode: -1
track:  19 lba:     50455 (   201820) 11:14:55 adr: 1 control: 0 mode: -1
track:  20 lba:     53046 (   212184) 11:49:21 adr: 1 control: 0 mode: -1
track:  21 lba:     56355 (   225420) 12:33:30 adr: 1 control: 0 mode: -1
track:  22 lba:     59225 (   236900) 13:11:50 adr: 1 control: 0 mode: -1
track:  23 lba:     62478 (   249912) 13:55:03 adr: 1 control: 0 mode: -1
track:  24 lba:     65683 (   262732) 14:37:58 adr: 1 control: 0 mode: -1
track:  25 lba:     69145 (   276580) 15:23:70 adr: 1 control: 0 mode: -1
track:  26 lba:     72419 (   289676) 16:07:44 adr: 1 control: 0 mode: -1
track:  27 lba:     75846 (   303384) 16:53:21 adr: 1 control: 0 mode: -1
track:  28 lba:     78981 (   315924) 17:35:06 adr: 1 control: 0 mode: -1
track:  29 lba:     82965 (   331860) 18:28:15 adr: 1 control: 0 mode: -1
track:  30 lba:     86253 (   345012) 19:12:03 adr: 1 control: 0 mode: -1
track:  31 lba:     89910 (   359640) 20:00:60 adr: 1 control: 0 mode: -1
track:  32 lba:     93644 (   374576) 20:50:44 adr: 1 control: 0 mode: -1
track:  33 lba:     95894 (   383576) 21:20:44 adr: 1 control: 0 mode: -1
track:  34 lba:     99893 (   399572) 22:13:68 adr: 1 control: 0 mode: -1
track:  35 lba:    102902 (   411608) 22:54:02 adr: 1 control: 0 mode: -1
track:  36 lba:    105821 (   423284) 23:32:71 adr: 1 control: 0 mode: -1
track:  37 lba:    109018 (   436072) 24:15:43 adr: 1 control: 0 mode: -1
track:  38 lba:    112397 (   449588) 25:00:47 adr: 1 control: 0 mode: -1
track:  39 lba:    116040 (   464160) 25:49:15 adr: 1 control: 0 mode: -1
track:  40 lba:    118938 (   475752) 26:27:63 adr: 1 control: 0 mode: -1
track:  41 lba:    122602 (   490408) 27:16:52 adr: 1 control: 0 mode: -1
track:  42 lba:    125632 (   502528) 27:57:07 adr: 1 control: 0 mode: -1
track:  43 lba:    128927 (   515708) 28:41:02 adr: 1 control: 0 mode: -1
track:  44 lba:    132138 (   528552) 29:23:63 adr: 1 control: 0 mode: -1
track:  45 lba:    135252 (   541008) 30:05:27 adr: 1 control: 0 mode: -1
track:  46 lba:    138059 (   552236) 30:42:59 adr: 1 control: 0 mode: -1
track:  47 lba:    141375 (   565500) 31:27:00 adr: 1 control: 0 mode: -1
track:  48 lba:    144789 (   579156) 32:12:39 adr: 1 control: 0 mode: -1
track:  49 lba:    147596 (   590384) 32:49:71 adr: 1 control: 0 mode: -1
track:  50 lba:    150842 (   603368) 33:33:17 adr: 1 control: 0 mode: -1
track:  51 lba:    154471 (   617884) 34:21:46 adr: 1 control: 0 mode: -1
track:  52 lba:    157892 (   631568) 35:07:17 adr: 1 control: 0 mode: -1
track:  53 lba:    161472 (   645888) 35:54:72 adr: 1 control: 0 mode: -1
track:  54 lba:    164433 (   657732) 36:34:33 adr: 1 control: 0 mode: -1
track:  55 lba:    167957 (   671828) 37:21:32 adr: 1 control: 0 mode: -1
track:  56 lba:    170827 (   683308) 37:59:52 adr: 1 control: 0 mode: -1
track:  57 lba:    173670 (   694680) 38:37:45 adr: 1 control: 0 mode: -1
track:  58 lba:    176372 (   705488) 39:13:47 adr: 1 control: 0 mode: -1
track:  59 lba:    179249 (   716996) 39:51:74 adr: 1 control: 0 mode: -1
track:  60 lba:    181701 (   726804) 40:24:51 adr: 1 control: 0 mode: -1
track:  61 lba:    184327 (   737308) 40:59:52 adr: 1 control: 0 mode: -1
track:  62 lba:    186522 (   746088) 41:28:72 adr: 1 control: 0 mode: -1
track:  63 lba:    188925 (   755700) 42:01:00 adr: 1 control: 0 mode: -1
track:  64 lba:    191391 (   765564) 42:33:66 adr: 1 control: 0 mode: -1
track:  65 lba:    195473 (   781892) 43:28:23 adr: 1 control: 0 mode: -1
track:  66 lba:    198510 (   794040) 44:08:60 adr: 1 control: 0 mode: -1
track:  67 lba:    202063 (   808252) 44:56:13 adr: 1 control: 0 mode: -1
track:  68 lba:    204682 (   818728) 45:31:07 adr: 1 control: 0 mode: -1
track:  69 lba:    207524 (   830096) 46:08:74 adr: 1 control: 0 mode: -1
track:  70 lba:    210617 (   842468) 46:50:17 adr: 1 control: 0 mode: -1
track:  71 lba:    214037 (   856148) 47:35:62 adr: 1 control: 0 mode: -1
track:  72 lba:    216984 (   867936) 48:15:09 adr: 1 control: 0 mode: -1
track:  73 lba:    220293 (   881172) 48:59:18 adr: 1 control: 0 mode: -1
track:  74 lba:    222842 (   891368) 49:33:17 adr: 1 control: 0 mode: -1
track:  75 lba:    226702 (   906808) 50:24:52 adr: 1 control: 0 mode: -1
track:  76 lba:    229906 (   919624) 51:07:31 adr: 1 control: 0 mode: -1
track:  77 lba:    232532 (   930128) 51:42:32 adr: 1 control: 0 mode: -1
track:  78 lba:    235270 (   941080) 52:18:70 adr: 1 control: 0 mode: -1
track:  79 lba:    238063 (   952252) 52:56:13 adr: 1 control: 0 mode: -1
track:  80 lba:    241121 (   964484) 53:36:71 adr: 1 control: 0 mode: -1
track:  81 lba:    244841 (   979364) 54:26:41 adr: 1 control: 0 mode: -1
track:  82 lba:    247049 (   988196) 54:55:74 adr: 1 control: 0 mode: -1
track:  83 lba:    250344 (  1001376) 55:39:69 adr: 1 control: 0 mode: -1
track:  84 lba:    252726 (  1010904) 56:11:51 adr: 1 control: 0 mode: -1
track:  85 lba:    256147 (  1024588) 56:57:22 adr: 1 control: 0 mode: -1
track:  86 lba:    259170 (  1036680) 57:37:45 adr: 1 control: 0 mode: -1
track:  87 lba:    262625 (  1050500) 58:23:50 adr: 1 control: 0 mode: -1
track:  88 lba:    265885 (  1063540) 59:07:10 adr: 1 control: 0 mode: -1
track:  89 lba:    268456 (  1073824) 59:41:31 adr: 1 control: 0 mode: -1
track:  90 lba:    271284 (  1085136) 60:19:09 adr: 1 control: 0 mode: -1
track:  91 lba:    274704 (  1098816) 61:04:54 adr: 1 control: 0 mode: -1
track:  92 lba:    277943 (  1111772) 61:47:68 adr: 1 control: 0 mode: -1
track:  93 lba:    281454 (  1125816) 62:34:54 adr: 1 control: 0 mode: -1
track:  94 lba:    284638 (  1138552) 63:17:13 adr: 1 control: 0 mode: -1
track:  95 lba:    287083 (  1148332) 63:49:58 adr: 1 control: 0 mode: -1
track:  96 lba:    289974 (  1159896) 64:28:24 adr: 1 control: 0 mode: -1
track:  97 lba:    294042 (  1176168) 65:22:42 adr: 1 control: 0 mode: -1
track:  98 lba:    298180 (  1192720) 66:17:55 adr: 1 control: 0 mode: -1
track:  99 lba:    300012 (  1200048) 66:42:12 adr: 1 control: 0 mode: -1
track:lout lba:    301350 (  1205400) 67:00:00 adr: 1 control: 0 mode: -1
